<?xml version="1.0" encoding="UTF-8"?>
<svg id="Layer_1" xmlns="http://www.w3.org/2000/svg" version="1.1" xmlns:xlink="http://www.w3.org/1999/xlink" viewBox="0 0 1000 1023">
  <!-- Generator: Adobe Illustrator 29.3.1, SVG Export Plug-In . SVG Version: 2.1.0 Build 151)  -->
  <defs>
    <style>
      .st0 {
        fill: #fff;
      }
    </style>
  </defs>
  <rect width="1000" height="1023"/>
  <path class="st0" d="M432.5,604.5c4.7-9.3,11.7-14.8,22.1-19.8,9.5-4.6,24.4-10.4,36.5-15.5,53-21.8,110.9-45.7,167.3-68.9,27.8-11.5,65-26.8,86.6-35.6,11.9-5.3,33.9-13.5,43.5-7.5,18,12.7-13.2,45.9-23.8,60.2-8.6,10.9-18.6,23.5-29.3,36.9-33.3,41.7-70.8,89.8-102.9,129.4-10.4,12.5-19.9,21.9-35.5,25.7-21.1,4.8-44.6,4.7-66.5,4.2-27.6-1.4-54.6-7.1-74.6-23.7-23.1-19.1-37.4-59.3-23.5-85.1v-.2h.1Z"/>
  <path class="st0" d="M375.5,395.3c6.4,8.4,8.4,17.3,8.3,29.1,0,10.7-1.2,27-1.9,40.4-3.4,58.3-7.1,121.9-10.7,184-1.5,25.3-2.9,50-4.4,75-1.7,21.1-.7,33.8-5.2,50.1-8.1,25.7-25.8,14.5-36.8-4.4-12.7-22.3-23.9-48.4-36.8-74.5-23.4-49.1-50.9-105-72.9-152.1-6.8-15.1-11.3-28-7.9-44,5-21.7,15.6-43.5,25.9-63.6,13.4-24.4,30.4-46.2,54.5-56.9,27.7-12.4,70.4-7.3,87.8,16.8l.2.2h-.1Z"/>
  <path class="st0" d="M658.5,437.4c-10.1,3-19.1,1.6-30.1-2.8-9.8-3.8-24.2-10.7-36.1-16.2-52.4-24.1-109.6-50.4-165.4-76-27.5-12.6-64.3-29.5-85.6-39.3-12.1-5.2-33.1-15.7-35.3-26.9-2.9-22.1,42.9-22.1,60.9-24.1,13.9-1.2,30.1-2.5,47.4-4,53.6-4.3,114.9-10,166.2-13.6,16.4-.9,29.8-.5,43.4,8.4,18,12.2,34,29.7,48.6,46.3,17.8,21.4,32.1,45.3,33.4,71.6,1.6,30.3-18.4,68.7-47,76.5h-.4Z"/>
</svg>