        <svg xmlns="http://www.w3.org/2000/svg" style="display: none" aria-hidden="true">
            <symbol
                id="icon-star"
                viewBox="0 0 24 24"
                fill="currentColor"
                stroke="currentColor"
                stroke-width="2"
                stroke-linecap="round"
                stroke-linejoin="round"
            >
                <path
                    d="M11.525 2.295a.53.53 0 0 1 .95 0l2.31 4.679a2.123 2.123 0 0 0 1.595 1.16l5.166.756a.53.53 0 0 1 .294.904l-3.736 3.638a2.123 2.123 0 0 0-.611 1.878l.882 5.14a.53.53 0 0 1-.771.56l-4.618-2.428a2.122 2.122 0 0 0-1.973 0L6.396 21.01a.53.53 0 0 1-.77-.56l.881-5.139a2.122 2.122 0 0 0-.611-1.879L2.16 9.795a.53.53 0 0 1 .294-.906l5.165-.755a2.122 2.122 0 0 0 1.597-1.16z"
                />
            </symbol>
            <symbol
                id="icon-chevron-right"
                viewBox="0 0 24 24"
                fill="none"
                stroke="currentColor"
                stroke-width="2"
                stroke-linecap="round"
                stroke-linejoin="round"
            >
                <path d="m9 18 6-6-6-6" />
            </symbol>
            <symbol
                id="icon-chevron-down"
                viewBox="0 0 24 24"
                fill="none"
                stroke="currentColor"
                stroke-width="2"
                stroke-linecap="round"
                stroke-linejoin="round"
            >
                <path d="m6 9 6 6 6-6" />
            </symbol>
            <symbol id="icon-sidebar" viewBox="0 0 20 20" fill="none">
                <rect
                    x="10.5"
                    y="6.5"
                    width="7"
                    height="5"
                    rx="1"
                    transform="rotate(90 10.5 6.5)"
                    fill="currentColor"
                ></rect>
                <rect x="3" y="4" width="14" height="12" rx="2.8" stroke="currentColor" stroke-width="1.5"></rect>
            </symbol>
            <symbol
                id="icon-bell"
                viewBox="0 0 24 24"
                fill="none"
                stroke="currentColor"
                stroke-width="2"
                stroke-linecap="round"
                stroke-linejoin="round"
            >
                <path d="M10.268 21a2 2 0 0 0 3.464 0" />
                <path d="M22 8c0-2.3-.8-4.3-2-6" />
                <path
                    d="M3.262 15.326A1 1 0 0 0 4 17h16a1 1 0 0 0 .74-1.673C19.41 13.956 18 12.499 18 8A6 6 0 0 0 6 8c0 4.499-1.411 5.956-2.738 7.326"
                />
                <path d="M4 2C2.8 3.7 2 5.7 2 8" />
            </symbol>
            <path
                d="M16.839 3H7.16c-.527 0-.981 0-1.356.03-.395.033-.789.104-1.167.297a3 3 0 0 0-1.311 1.311c-.193.378-.264.772-.296 1.167C3 6.18 3 6.635 3 7.161v9.678c0 .527 0 .982.03 1.356.033.395.104.789.297 1.167a3 3 0 0 0 1.311 1.311c.378.193.772.264 1.167.296.375.031.83.031 1.356.031h9.678c.527 0 .982 0 1.356-.03.395-.033.789-.104 1.167-.297a3 3 0 0 0 1.311-1.311c.193-.378.264-.772.296-1.167.031-.375.031-.83.031-1.356V7.16c0-.527 0-.981-.03-1.356-.033-.395-.104-.789-.297-1.167a3 3 0 0 0-1.311-1.311c-.378-.193-.772-.264-1.167-.296A18 18 0 0 0 16.838 3"
                fill="currentColor"
            ></path>
            
            <symbol id="icon-github" viewBox="0 0 98 96" fill="currentColor"><path fill-rule="evenodd" clip-rule="evenodd" d="M48.854 0C21.839 0 0 22 0 49.217c0 21.756 13.993 40.172 33.405 46.69 2.427.49 3.316-1.059 3.316-2.362 0-1.141-.08-5.052-.08-9.127-13.59 2.934-16.42-5.867-16.42-5.867-2.184-5.704-5.42-7.17-5.42-7.17-4.448-3.015.324-3.015.324-3.015 4.934.326 7.523 5.052 7.523 5.052 4.367 7.496 11.404 5.378 14.235 4.074.404-3.178 1.699-5.378 3.074-6.6-10.839-1.141-22.243-5.378-22.243-24.283 0-5.378 1.94-9.778 5.014-13.2-.485-1.222-2.184-6.275.486-13.038 0 0 4.125-1.304 13.426 5.052a46.97 46.97 0 0 1 12.214-1.63c4.125 0 8.33.571 12.213 1.63 9.302-6.356 13.427-5.052 13.427-5.052 2.67 6.763.97 11.816.485 13.038 3.155 3.422 5.015 7.822 5.015 13.2 0 18.905-11.404 23.06-22.324 24.283 1.78 1.548 3.316 4.481 3.316 9.126 0 6.6-.08 11.897-.08 13.526 0 1.304.89 2.853 3.316 2.364 19.412-6.52 33.405-24.935 33.405-46.691C97.707 22 75.788 0 48.854 0z"/></symbol>
            <symbol id="icon-patreon" viewBox="0 0 1080 1080"><path d="M1033.05,324.45c-0.19-137.9-107.59-250.92-233.6-291.7c-156.48-50.64-362.86-43.3-512.28,27.2
	C106.07,145.41,49.18,332.61,47.06,519.31c-1.74,153.5,13.58,557.79,241.62,560.67c169.44,2.15,194.67-216.18,273.07-321.33
	c55.78-74.81,127.6-95.94,216.01-117.82C929.71,603.22,1033.27,483.3,1033.05,324.45z"/></symbol>
	        <symbol id="icon-curseforge" viewBox="0 0 24 24" fill="currentColor" stroke-width="1"><path d="M18.326 9.2145S23.2261 8.4418 24 6.1882h-7.5066V4.4H0l2.0318 2.3576V9.173s5.1267 -0.2665 7.1098 1.2372c2.7146 2.516 -3.053 5.917 -3.053 5.917L5.0995 19.6c1.5465 -1.4726 4.494 -3.3775 9.8983 -3.2857 -2.0565 0.65 -4.1245 1.6651 -5.7344 3.2857h10.9248l-1.0288 -3.2726s-7.918 -4.6688 -0.8336 -7.1127z"></path></symbol>
	
	
	        <symbol id="icon-chevron-left" viewBox="0 0 24 24" fill="none" stroke="currentColor" stroke-width="2" stroke-linecap="round" stroke-linejoin="round">
            <path d="m14 18-6-6 6-6" />
        </symbol>
        <symbol id="icon-star" viewBox="0 0 24 24" fill="currentColor" stroke="currentColor" stroke-width="2" stroke-linecap="round" stroke-linejoin="round">
            <path d="M11.525 2.295a.53.53 0 0 1 .95 0l2.31 4.679a2.123 2.123 0 0 0 1.595 1.16l5.166.756a.53.53 0 0 1 .294.904l-3.736 3.638a2.123 2.123 0 0 0-.611 1.878l.882 5.14a.53.53 0 0 1-.771.56l-4.618-2.428a2.122 2.122 0 0 0-1.973 0L6.396 21.01a.53.53 0 0 1-.77-.56l.881-5.139a2.122 2.122 0 0 0-.611-1.879L2.16 9.795a.53.53 0 0 1 .294-.906l5.165-.755a2.122 2.122 0 0 0 1.597-1.16z" />
        </symbol>
            <symbol id="icon-play" viewBox="0 0 24 24" fill="currentColor" stroke="currentColor">
                <path d="M5 5a2 2 0 0 1 3.008-1.728l11.997 6.998a2 2 0 0 1 .003 3.458l-12 7A2 2 0 0 1 5 19z" />
            </symbol>
            <symbol id="icon-stop" viewBox="0 0 24 24" fill="currentColor" stroke="currentColor">
              <path d="M5 2h14a3 3 0 0 1 3 3v14a3 3 0 0 1-3 3H5a3 3 0 0 1-3-3V5a3 3 0 0 1 3-3Z"/>
            <symbol id="icon-pause" viewBox="0 0 24 24" fill="currentColor" stroke="currentColor">
                <rect x="14" y="3" width="5" height="18" rx="1" />
                <rect x="5" y="3" width="5" height="18" rx="1" />
            </symbol>
            <symbol id="icon-cog" viewBox="0 0 24 24" fill="none" stroke="currentColor" stroke-width="2" stroke-linecap="round" stroke-linejoin="round">
                <path d="M11 10.27 7 3.34m4 10.39-4 6.93M12 22v-2m0-18v2m2 8h8m-5 8.66-1-1.73m1-15.59-1 1.73M2 12h2m16.66 5-1.73-1m1.73-9-1.73 1M3.34 17l1.73-1M3.34 7l1.73 1" />
                <circle cx="12" cy="12" r="2" />
                <circle cx="12" cy="12" r="8" />
            </symbol>
            <symbol id="icon-volume-off" viewBox="0 0 24 24" fill="none" stroke="currentColor" stroke-width="2" stroke-linecap="round" stroke-linejoin="round">
                <path d="M16 9a5 5 0 0 1 .95 2.293" />
                <path d="M19.364 5.636a9 9 0 0 1 1.889 9.96" />
                <path d="m2 2 20 20" />
                <path d="m7 7-.587.587A1.4 1.4 0 0 1 5.416 8H3a1 1 0 0 0-1 1v6a1 1 0 0 0 1 1h2.416a1.4 1.4 0 0 1 .997.413l3.383 3.384A.705.705 0 0 0 11 19.298V11" />
                <path d="M9.828 4.172A.686.686 0 0 1 11 4.657v.686" />
            </symbol>
            <symbol id="icon-volume-min" viewBox="0 0 24 24" fill="none" stroke="currentColor" stroke-width="2" stroke-linecap="round" stroke-linejoin="round">
                <path d="M11 4.702a.705.705 0 0 0-1.203-.498L6.413 7.587A1.4 1.4 0 0 1 5.416 8H3a1 1 0 0 0-1 1v6a1 1 0 0 0 1 1h2.416a1.4 1.4 0 0 1 .997.413l3.383 3.384A.705.705 0 0 0 11 19.298z" />
                <path d="M16 9a5 5 0 0 1 0 6" />
            </symbol>
            <symbol id="icon-volume-max" viewBox="0 0 24 24" fill="none" stroke="currentColor" stroke-width="2" stroke-linecap="round" stroke-linejoin="round">
                <path d="M11 4.702a.705.705 0 0 0-1.203-.498L6.413 7.587A1.4 1.4 0 0 1 5.416 8H3a1 1 0 0 0-1 1v6a1 1 0 0 0 1 1h2.416a1.4 1.4 0 0 1 .997.413l3.383 3.384A.705.705 0 0 0 11 19.298z" />
                <path d="M16 9a5 5 0 0 1 0 6" />
                <path d="M19.364 18.364a9 9 0 0 0 0-12.728" />
            </symbol>
            <symbol id="icon-captions" viewBox="0 0 24 24" fill="none" stroke="currentColor" stroke-width="2" stroke-linecap="round" stroke-linejoin="round">
                <rect width="18" height="14" x="3" y="5" rx="2" ry="2" />
                <path d="M7 15h4M15 15h2M7 11h2M13 11h4" />
            </symbol>
            <symbol id="icon-minimize" viewBox="0 0 24 24" fill="none" stroke="currentColor" stroke-width="2" stroke-linecap="round" stroke-linejoin="round">
                <path d="m14 10 7-7M20 10h-6V4M3 21l7-7M4 14h6v6" />
            </symbol>
            <symbol id="icon-maximize" viewBox="0 0 24 24" fill="none" stroke="currentColor" stroke-width="2" stroke-linecap="round" stroke-linejoin="round">
                <path d="M15 3h6v6M21 3l-7 7M3 21l7-7M9 21H3v-6" />
            </symbol>
            <symbol id="icon-rewind-cw" viewBox="0 0 24 24" fill="none" stroke="currentColor" stroke-width="2" stroke-linecap="round" stroke-linejoin="round">
                <path d="M21 12a9 9 0 1 1-9-9c2.52 0 4.93 1 6.74 2.74L21 8" />
                <path d="M21 3v5h-5" />
            </symbol>
            <symbol id="icon-chevron-left" viewBox="0 0 24 24" fill="none" stroke="currentColor" stroke-width="2" stroke-linecap="round" stroke-linejoin="round">
                <path d="m14 18-6-6 6-6" />
            </symbol>
            <symbol id="icon-chevron-right" viewBox="0 0 24 24" fill="none" stroke="currentColor" stroke-width="2" stroke-linecap="round" stroke-linejoin="round">
                <path d="m9 18 6-6-6-6" />
            </symbol>   
            
            <symbol id="icon-x" viewBox="0 0 24 24" fill="none" stroke="currentColor" stroke-width="2" stroke-linecap="round" stroke-linejoin="round"><path d="M18 6 6 18"/><path d="m6 6 12 12"/></symbol>
        </svg>
