<?xml version="1.0" encoding="UTF-8"?>
<svg id="Layer_1" xmlns="http://www.w3.org/2000/svg" baseProfile="tiny" version="1.2" viewBox="0 0 512 512">
  <!-- Generator: Adobe Illustrator 29.3.1, SVG Export Plug-In . SVG Version: 2.1.0 Build 151)  -->
  <path fill="white" d="M261.6,509.7c-53.4,0-106.1-17.2-148.4-48.3-44.2-32.5-75.9-76.1-91.5-126.1-14.6-46.5-15.1-96.5-1.4-144.6,13.7-48.2,40.5-90.7,77.5-122.7C137.6,33.6,187.7,13,242.6,8.6h.3c6.5-.5,13-.8,19.5-.8,40.3,0,78.8,9.5,114.4,28.2,33.5,17.6,63.2,43.2,86,74,22.7,30.7,38.4,66.5,45.4,103.4,7.4,39.4,5.2,79-6.7,117.7-13.4,45.4-40.3,86.3-77.7,118.2-37.4,31.9-82,52-129.1,58.1-10.9,1.5-22,2.2-33.2,2.2h0ZM302.5,473.1c-9.3,0-19,.6-28.3,2.7h-.2s-.2,0-.2,0c-.3,0-.7.1-1.1.2,5.8-.1,11.8-.9,17.6-1.6,2.4-.3,4.8-.6,7.2-.8,1.6-.2,3.3-.4,5-.7ZM180.7,462c4.6,6,14.9,9.5,27.5,9.5s20.7-2.5,26.6-6.6c.3-.2.5-.4.7-.6-1.4-1.3-5.3-2.9-11.5-4.9-.5-.2-.9-.3-1.3-.4-2.1-.6-4.2-1.3-6.4-2-3.1-1-6.2-1.9-9.3-2.8h-.2c-5.3-1.6-11.4-3.4-16.4-3.4s-1.6,0-2.4.1h-.2c-3.4.3-6.5,2.3-7.8,5.1-1,2-.8,4.1.6,6.1ZM126.8,417.1c-.5,0-.7,0-.7,0-.6.5-1.1,4.5,1.4,10.4,3.4,8.1,9.4,15,16.8,19.6h0c3.2,2.1,5.8,2.5,7.5,2.5s4.1-.8,5.1-2.3c1.3-1.9,1.2-4.9-.2-8.5-4.4-8.9-15.9-15.2-24.3-19.9h-.2c-3-1.6-4.7-1.9-5.5-1.9ZM317.3,441.1c.5.4,2.6,1.4,9,1.4s4.2-.1,6.6-.3c13.6-1.1,28.8-3.2,41.6-5.8,10.3-2.1,17.9-4.6,24.5-7.9,11.7-5.8,22-15.2,29.8-22.8.9-1,2-2.1,3.3-3.4,3.3-3.3,7.8-7.9,11-12.2,3.4-4.6,3.6-6.8,3.5-7.5-.6-.5-2.5-1.6-8.2-1.6s-6.2.3-9,.5c-2.1.2-4,.4-5.7.4-6.2.5-12.8.8-21.4,1.1h-.1c-32.1.4-39.7,5.7-60.7,30.3-3.3,3.7-6.8,7.3-10.1,10.7-3.5,3.6-7.1,7.2-10.3,10.9-3.1,3.7-3.6,5.5-3.6,6ZM237.7,436.4c8.2,1.9,17.6,4,26.3,4s17.4-2.3,24.6-7.4c13-8.9,24.3-20.6,34-30.9,11.3-12.1,11-16.7,10.6-17.8-1.4-4.2-14.4-6.4-24.8-8.2-1.8-.3-3.6-.6-5.3-.9-15.3-2.9-31.8-6.8-50.5-12.1-3.6-1-7.5-2-11.3-2.5h-.3c-1.7-.3-3.2-.5-4.7-.5-12.1,0-17.4,9.2-24.7,24.3l-.9,2c-1,2.3-2.2,4.7-3.4,7.2-4.5,9-9.5,19.1-6.9,26.4,3.5,8.2,18,11.7,29.6,14.4,2.8.7,5.5,1.3,7.9,2ZM121.2,333.6c-1.7,25.4-3.1,45.4,18.2,60.2,1,.7,2.2,1.5,3.4,2.4,7.2,5.1,18,12.7,25.4,12.7s1.6-.1,2.3-.3c5.4-1.7,8.8-8.6,11.7-14.8.3-.7.7-1.4,1-2.1,3.2-6.9,6.4-14,10.1-22.2l.6-1.4c2.9-6.7,5.8-13.6,4.5-19.7-1.5-6.8-8.8-11-15.7-15.1-.8-.5-1.6-1-2.4-1.4-11.7-6.7-22.8-13.7-33.8-21.4h0c-1.4-1-3-2-4.5-3.1-4.4-3.1-10.5-7.3-13.8-7.3s-.5,0-.5,0c-3.9,3.5-5.2,20.3-5.8,27.5-.2,2.3-.3,4.3-.5,6ZM79.1,379.8c1.2,2,2.5,4.1,3.9,6.3,1.5,2.5,5.4,8.6,9,13-2.7-6.9-7.6-13.2-12.8-19.2ZM453.2,268.1c-3.5.6-7.1,1-10.7,1.5-11.4,1.3-22.1,2.6-29.2,9.4-5.2,5.2-7.9,13-10.4,20.7-2.9,9.1-6.9,21.2-11.6,32.9h0c-1.8,4.2-6.4,15.2-3.7,19.4,1.8,2.7,7.2,3.4,11.4,3.5h.2c9.7,0,19.8-1.2,29.6-2.3l2.8-.3c21.3-2.5,33.9-7.4,40.1-25.9h0c2.6-7.1,4.9-15.8,7.1-26,1.6-7.6,3-15.5,2.9-21.8v-.2c0-9.1-3.5-12.3-13-12.3s-8.8.7-13.3,1.3l-2,.3ZM287.4,255.8c-.9,0-1.8,0-2.6.1h-.1c-10.6,1.3-15.7,11.5-21.1,22.3l-.7,1.3c-4.8,9.9-8.7,18-12.3,25.7-2.2,4.9-5,11-5.8,16.4-1.5,9.7,6.7,14,21.5,18.2,25,7,48.1,11.6,68.8,13.8,1.5.2,2.9.2,4.2.2,16.2,0,21.8-11.8,29.6-30.9.4-1,.8-1.9,1.2-2.9.8-2.1,1.6-4.2,2.4-6.4,3.9-10.1,7.9-20.6,8.1-30.8,0-7-5.4-10.5-19.8-12.8-21.7-3.2-39.4-6.8-55.6-11.2l-1.6-.4c-5.4-1.4-11-2.8-16.2-2.8ZM68,325.3c.7,1.1,1.6,2.5,2.6,4.1,2.8,4.6,6.7,10.8,10.6,15.8,4.8,6.1,7.3,7.3,8,7.5.5-.6,1.9-2.8,2.7-9.8.6-4.6,1.1-9.2,1.5-13.8.4-4.3.9-8.8,1.5-13.2.2-2,.5-4,.8-6.1,1.3-10.3,2.7-21,.6-30.2-1.8-8.6-6.7-16.1-11.2-22.4-8.8-12-18.2-25-26.5-38.5l-.9-1.4c-2.5-3.9-5.6-8.7-8.8-10.5,0,0-.2,0-.2,0-.4.3-2,2-3.4,8.8-1.1,5.4-1.6,11.7-1.9,15.8-.1,1.7-.2,3-.3,4-3.2,36.1,5.1,57,25,89.9ZM169.6,188.9c-5.4,0-10.3,4.7-15.4,14.8-4.6,9.2-8.5,18.7-11.7,26.7-11.3,28.2-11.1,41.1,11.9,57.2,13.5,9.8,26.6,18.2,38.9,25,7.2,4,12.6,5.8,17.1,5.8s8.8-2.4,12.1-7.4c5.2-8.5,9.2-17.5,13.5-27.1,2.2-4.9,4.4-9.9,6.8-14.8,8-17,11.8-27.1-2.2-36.3-4.6-2.9-9.4-5.9-14.1-8.7-11.7-7.2-23.8-14.6-35.2-23.2-.8-.6-1.6-1.2-2.5-1.8-3.8-2.8-7.7-5.6-11.6-7.8h-.1c-2.9-1.7-5.4-2.4-7.6-2.4ZM62,171.2c2.5,19.9,25.2,50.1,34.9,63,6.8,8.8,10.6,9.7,11.8,9.7,4.7,0,10-13.2,11.8-17.5,4.3-10.2,8.9-20.4,14.2-31.2l.8-1.6c2.9-6,5.8-12.1,7.3-18.3h0c2.7-10.1-.5-20.1-10.6-33.5l-2.5-3.5c-2.9-4-6-8.2-8.9-12.4-.9-1.3-1.8-2.6-2.8-4-3-4.5-6.2-9.1-9.8-12.4l-.2-.2c-2.2-2.1-4.3-3.1-6.4-3.1-7.1,0-15.1,11.2-19.9,17.9l-.9,1.2c-9.5,13.7-20.3,29.3-18.9,45.8ZM447.2,163.7c-5.8,0-13.1,2-19.9,5.5-9.1,4.8-9.7,14.9-9.6,28.6,0,7.5,0,15.2-.1,22.6v1.4c-.2,13.5,1.2,20.6,9.1,21.8,1.6.2,3.3.4,5.2.4,5.2,0,10.7-.9,16.1-1.8,1.1-.2,2.2-.4,3.3-.5,12.8-2.1,19.7-5,22.9-9.7,2.6-3.7,3.2-9.2,1.8-16.8-6.4-32.1-13-43.6-17.4-47.6h-.1c-2.8-2.6-6.5-3.8-11.2-3.8ZM318.1,234.5c16.2,4,33.6,7.9,51.5,9.2.8,0,1.6,0,2.4,0,16.2,0,17.6-13.2,17.8-34.8,0-1.1,0-2.2,0-3.3,0-18.6-2.3-25.2-3.6-27.5v-.2c-1.2-2.1-3.3-3.6-6.6-4.6-3.9-1.2-9.6-2.2-15.6-3.2-3.1-.5-6.3-1.1-9.4-1.7-2.6-.5-5.4-1.1-8.2-1.6-5.1-1.1-10.3-2.2-14.5-2.5h-.3c-.5,0-1.1,0-1.6,0-6.2,0-11.9,3.6-15.4,9.9h0c-3.1,5.2-5.9,11.2-8.5,17-.8,1.8-1.6,3.5-2.4,5.2-.7,1.5-1.4,3.1-2.1,4.6-3.5,7.6-6.8,14.7-5.1,21.2,2.2,6.8,12.1,9.6,20.1,11.8l1.6.5ZM201.4,181c17.6,13,32.5,22.3,46.8,29.3,4.3,2,8.1,3.1,11.4,3.1,9.6,0,14.7-9.5,22-25.2l2-4.3c12.6-27.2,16.4-35.4-10.3-52.4h-.2c-5.5-4-10.4-7.5-15-11l-1.6-1.2c-5.3-4-10.8-8.1-16.5-9.6h-.2c-1.5-.4-2.8-.6-4.2-.6-9.2,0-17.8,8.6-25.4,16.1l-1.7,1.7c-1.6,1.8-3.5,3.7-5.4,5.7-8.1,8.4-19.3,19.8-17.8,29.3,1.2,7.6,9.1,13.7,15.9,19l.2.2ZM360.5,145c4,.7,8.2,1.5,11.9,1.5,6.1,0,7.9-2.1,8.8-4.4,1.5-6.4-.8-13.9-3.1-21.1-.6-1.9-1.2-4-1.8-5.9-.6-1.6-1.2-3.6-2-5.9-1.8-5.5-4.2-12.9-7-19-4.1-8.8-6.5-9.4-6.5-9.4,0,0,0,0,0,0-.2,0-2.2.2-5.7,5.7-2.7,4.2-5.2,9.8-7.2,14.2-1.1,2.4-2,4.5-2.9,6.1-.7,1.7-1.5,3.4-2.3,5.1-3.2,6.9-6.5,14.1-5.5,20.7,1.8,7.1,9.1,9.3,20.9,12l.7.2,1.8.3ZM403.2,112.5c.8,2.2,1.4,4.5,2.1,6.7,2.5,8.4,4.9,16.4,10.8,20.8,2.3,1.8,6.2,2.8,10.4,2.8,6.8,0,12.9-2.5,14.8-6.2,1.2-3.9-2.2-8.5-6.7-14-.4-.4-.7-.9-1.1-1.3-4.6-5.3-9.9-10.9-16.3-17.1h0c-.7-.6-1.7-1.6-3.1-3-10.6-10.1-16.3-14.6-19.5-16.4.8,4.5,3.1,11.3,5.2,17.3,1.3,3.7,2.5,7.2,3.4,10.4ZM134.7,111.6c.9,1.3,1.8,2.6,2.7,4,5.8,8.7,13,19.4,20.9,22.5,1.1.4,2.2.6,3.3.6,6.6,0,13.5-7.2,18.1-11.9,1.4-1.4,2.7-2.9,4.1-4.3,3.2-3.4,6.6-7,10-10.4,1.5-1.6,3.2-3.2,4.8-4.7,12.7-12.4,20.6-21.4,15.8-33.5-3.7-9.5-9.6-17.6-15.9-21.8h-.1c-2.7-1.8-5.8-2.6-9.3-2.6-8.6,0-18.4,5-27.1,9.4-2.2,1.1-4.2,2.1-6.2,3.1-1.2.7-2.5,1.4-3.8,2.1-10.8,5.9-23,12.6-25.3,23.5-1.4,7.9,3,16,8.1,24.2ZM317.8,64.7c-14,3.9-26.6,8.4-38.6,13.8-10.5,4.6-16.4,9.5-16.7,13.7-.4,5.1,6.4,12,20.3,20.7h.1c7.3,4.9,13.5,7.4,18.3,7.4,7.9,0,13.7-6.4,22.1-24.3l.9-1.9c2.5-5.2,5.2-10.6,7.7-16.1.4-.9.8-1.8,1.2-2.7,2.1-4.9,4.2-9.5,2.9-12.4-.5-.4-1.6-1-4.1-1s-7.5,1-11.6,2.1c-.9.2-1.7.4-2.6.6ZM222.4,46.6c-1.2,5.8,4.2,13,10.1,16.1,2.5,1.3,5.2,2,8.2,2,7,0,14.6-3.6,22-7.1,3-1.4,6-2.8,9.1-4,3.8-1.8,8.5-3.6,13-5.3,5.7-2.2,11.6-4.5,15.8-6.7-2.4-.6-6.3-1.3-12.8-1.9-.6,0-1.2-.1-1.6-.2h-.2c-8.6-.8-16.8-1.1-25.1-1.1s-4.2,0-6.3,0c-1.5,0-3.2.2-5,.2-9.2.3-24.6.9-27.1,7.8Z"/>
</svg>